.
 
http://www.scenetime.com    -   SceneTime [ We been having it ] !!!


How come you press harder on a remote control when you know the battery is dead? so you better seed to get speed ;)

        Seed back for speed


...................................NFO:.................................................   
                                                                                  :::   .:         ::     .::        ::    .::.        .:.     .                       
              :::::. :::::                              ::::::  :::::.                              .:::::::.                                   .: 
   :::::..:::::                              :::::: .::::.                              :::::::::::                                  .::::. :::::.    
   :::::..:::::         ::::::::::::.        ::::::.::::.         ::::::::::::.        .::::: ::::::         ::::. .:::  ::::.       .:::::.:::::.    
   :::::..:::::         ::::::..:::::        :::::::::::          ::::::..:::::.       .::::: ::::::         .:::. ::::  ::::        .:::::::::::.    
   :::::. :::::         :::::. .:::::        ::::::::::.          ::::::  ::::::       .::::: ::::::         .:::. ::::..::::        .:::::::::::.    
   :::::..:::::         :::::. .:::::        ::::::::::           ::::::  :::::.       .::::: ::::::         .::::.::::.:::::        .:::::::::::.    
   :::::..:::::         :::::. .:::::        ::::::::::.          ::::::  :::::.       .::::: ::::::          ::::::::::::::.        .:::::::::::.    
   :::::..:::::         :::::. .:::::        :::::::::::.         ::::::  :::::.       .::::: ::::::          .:::::::::::::         .:::::::::::.    
   .::::..:::::         :::::. .:::::        :::::: :::::         ::::::  :::::.       .::::: :::::.          .:::::. ::::::         .:::::.:::::.    
    ::::::::::.         :::::. .:::::        :::::: .::::.        ::::::  :::::.        :::::::::::           .:::::. ::::::         .:::::  ::::.    
     .::::::.           :::::. .:::::        ::::::  :::::.       ::::::  :::::.         ..::::::.             :::::  .::::.         .:::::  ::::.                                  
   
    
                     NOTES                                      NOTES                                 

                     NOTES                                      NOTES          
                                   
                                                                

  Encoded By .......:UnKnOwN                                                     Release Date ......... 2011
  Runtime ..........:1:57                                                        Source       ......... Russian TS/IMAGINE
  IMDb URL .........:http://www.imdb.com/title/tt1201607/                        File Type    ......... Single AVI
  Language .........:English                                                     PS3 Compatible ....... Why dont You complain in comments and let me know(:
  File Size ........:1.13gb                                                      Genre        ......... Fantasy/Nerd Haven

Video
ID                               : 0
Format                           : MPEG-4 Visual
Format profile                   : Advanced Simple@L5
Format settings, BVOP            : Yes
Format settings, QPel            : No
Format settings, GMC             : No warppoints
Format settings, Matrix          : Custom
Codec ID                         : XVID
Codec ID/Hint                    : XviD
Duration                         : 51h 57mn
Bit rate                         : 1 146 Kbps
Width                            : 660 pixels
Height                           : 274 pixels
Display aspect ratio             : 2.40:1
Frame rate                       : 25.000 fps
Color space                      : YUV
Chroma subsampling               : 4:2:0
Bit depth                        : 8 bits
Scan type                        : Progressive
Bits/(Pixel*Frame)               : 0.253
Stream size                      : 44.7 MiB (4%)
Writing library                  : XviD 1.2.1 (UTC 2008-12-04)

Audio
ID                               : 1
Format                           : MPEG Audio
Codec ID                         : 55
Codec ID/Hint                    : MP3
Duration                         : 1h 57mn
Bit rate                         : 128 Kbps
Channel(s)                       : 2 channels
Sampling rate                    : 44.1 KHz
Stream size                      : 107 MiB (9%)
Alignment                        : Aligned on interleaves



                                                                    SYSPNOSIS
                             The final chapter begins as Harry, Ron, and Hermione continue their quest of finding and 
                                     destroying the Dark Lord's three remaining Horcruxes. 


                                                                   RELEASE INFO
                                    
                            Used the russian ts seems it has less of a flicker then the cam but colors were dead and had a lot of noise
                            primarily focused on the dark scenes since majority of the movie is dark,fixed the colors,denoiser.smooth bla bla
                            On to audio is IMAGINES line not much syncing needed about 25 cuts,2  Samples included.
                           
                                         


                             
                                               
                                                     
                                                                 LOOKING FOR
                                                                                                                
                                                        Kangaroo Meat heard it freakin delicious(:
                             




                             
                                            GREETZ & RESPECT                   
                              
                                                              NOBODY YET WILL LET YOU KNOW

                                                              MORE GOODIES COMING REAL SOON